<svg version="1.1" id="Layer_1" xmlns="http://www.w3.org/2000/svg" x="0" y="0" width="135" height="135" style="enable-background:new 0 0 135 135" xml:space="preserve"><style>.st188{fill:#fff}.st205{fill:#33363a}.st232{fill:#d8e5ea}.st247{fill:#a7bbc1}</style><path class="st232" d="M107.515 19.271h-12.08v-6.12A7.651 7.651 0 0 0 87.783 5.5H47.222a7.652 7.652 0 0 0-7.656 7.651v6.12h-12.08c-8.338 0-15.1 6.758-15.1 15.1v80.027c0 8.338 6.762 15.102 15.1 15.102h80.029c8.34 0 15.1-6.764 15.1-15.102V34.371c-.001-8.342-6.761-15.1-15.1-15.1zm-40.014 84.946c-16.475 0-29.83-13.359-29.83-29.833 0-16.475 13.355-29.829 29.83-29.829s29.832 13.354 29.832 29.829c0 16.473-13.357 29.833-29.832 29.833z"/><path d="M107.515 33.525h-12.08v-6.119a7.654 7.654 0 0 0-7.652-7.653H47.222a7.654 7.654 0 0 0-7.656 7.653v6.119h-12.08c-8.338 0-15.1 6.762-15.1 15.098v65.775c0 8.338 6.762 15.102 15.1 15.102h80.029c8.34 0 15.1-6.764 15.1-15.102V48.623c-.001-8.336-6.761-15.098-15.1-15.098zM97.333 88.639c0 16.475-13.357 29.831-29.832 29.831s-29.83-13.356-29.83-29.831c0-2.461.33-4.84.893-7.127-.562-2.289-.893-4.666-.893-7.128 0-16.475 13.355-29.829 29.83-29.829s29.832 13.354 29.832 29.829c0 2.462-.332 4.839-.893 7.128.561 2.287.893 4.666.893 7.127z" style="fill:#c5d7dd"/><path class="st205" d="M107.515 131h-80.03c-9.153 0-16.6-7.447-16.6-16.602V34.371c0-9.153 7.447-16.6 16.6-16.6h10.58v-4.62C38.065 8.105 42.173 4 47.222 4h40.561c5.046 0 9.152 4.105 9.152 9.151v4.62h10.58c9.153 0 16.6 7.447 16.6 16.6v80.027c-.001 9.155-7.448 16.602-16.6 16.602zM27.485 20.771c-7.499 0-13.6 6.101-13.6 13.6v80.027c0 7.5 6.101 13.602 13.6 13.602h80.029c7.499 0 13.6-6.102 13.6-13.602V34.371c0-7.499-6.101-13.6-13.6-13.6h-12.08a1.5 1.5 0 0 1-1.5-1.5v-6.12A6.158 6.158 0 0 0 87.782 7h-40.56c-3.395 0-6.156 2.759-6.156 6.151v6.12a1.5 1.5 0 0 1-1.5 1.5H27.485zm40.016 84.946c-17.275 0-31.33-14.056-31.33-31.333 0-17.275 14.055-31.329 31.33-31.329 17.276 0 31.332 14.054 31.332 31.329 0 17.277-14.056 31.333-31.332 31.333zm0-59.662c-15.621 0-28.33 12.708-28.33 28.329 0 15.623 12.709 28.333 28.33 28.333 15.623 0 28.332-12.71 28.332-28.333 0-15.621-12.709-28.329-28.332-28.329z"/><circle cx="67.501" cy="77.184" r="32.959" style="fill:#ff8f8f"/><path d="M100.46 77.184c0 13.943-14.756 25.248-32.959 25.248S34.542 91.127 34.542 77.184c0-13.939 14.756-25.244 32.959-25.244s32.959 11.304 32.959 25.244z" style="fill:#ff1a1a"/><path class="st188" d="M34.542 77.184c0 18.205 14.756 32.961 32.959 32.961s32.959-14.756 32.959-32.961H34.542z"/><path class="st232" d="M67.501 102.432c18.203 0 32.959-11.305 32.959-25.248H34.542c0 13.943 14.756 25.248 32.959 25.248z"/><path class="st205" d="M67.501 111.645c-19.001 0-34.459-15.459-34.459-34.461 0-19 15.458-34.457 34.459-34.457s34.459 15.458 34.459 34.457c0 19.002-15.458 34.461-34.459 34.461zm0-65.918c-17.347 0-31.459 14.111-31.459 31.457 0 17.348 14.112 31.461 31.459 31.461S98.96 94.531 98.96 77.184c0-17.346-14.112-31.457-31.459-31.457z"/><path class="st205" d="M100.46 78.684H34.542a1.5 1.5 0 1 1 0-3h65.918a1.5 1.5 0 1 1 0 3z"/><circle class="st247" cx="67.5" cy="80.96" r="10.898"/><circle class="st188" cx="67.5" cy="77.256" r="10.899"/><path class="st232" d="M59.794 84.963c-4.254-4.256-4.254-11.158 0-15.414 4.258-4.256 11.158-4.256 15.412 0"/><path class="st205" d="M67.501 89.653a12.326 12.326 0 0 1-8.768-3.629c-4.833-4.836-4.833-12.701-.001-17.536a12.322 12.322 0 0 1 8.769-3.631c3.312 0 6.425 1.29 8.766 3.631 2.342 2.342 3.632 5.455 3.632 8.768s-1.29 6.427-3.633 8.768a12.314 12.314 0 0 1-8.765 3.629zm0-21.796c-2.51 0-4.871.978-6.647 2.752-3.663 3.665-3.663 9.628 0 13.293a9.345 9.345 0 0 0 6.646 2.751c2.51 0 4.87-.977 6.644-2.751 1.776-1.775 2.754-4.136 2.754-6.646s-.978-4.871-2.754-6.646a9.323 9.323 0 0 0-6.643-2.753z"/><g><path class="st205" d="M67.501 121.377a1.5 1.5 0 0 1-1.5-1.5v-9.623a1.5 1.5 0 1 1 3 0v9.623a1.5 1.5 0 0 1-1.5 1.5z"/></g><g><path class="st205" d="M111.104 106.645h-9.623a1.5 1.5 0 1 1 0-3h9.623a1.5 1.5 0 1 1 0 3z"/></g><g><path class="st205" d="M111.104 112.502h-9.623a1.5 1.5 0 1 1 0-3h9.623a1.5 1.5 0 1 1 0 3z"/></g><g><path class="st205" d="M111.104 118.357h-9.623a1.5 1.5 0 1 1 0-3h9.623a1.5 1.5 0 1 1 0 3z"/></g><g><path class="st205" d="M67.501 131a1.5 1.5 0 0 1-1.5-1.5v-3.127a1.5 1.5 0 1 1 3 0v3.127a1.5 1.5 0 0 1-1.5 1.5z"/></g><g><circle class="st247" cx="30.312" cy="40.432" r="6.403"/><circle cx="30.312" cy="37.255" r="6.403" style="fill:#93ff5a"/><path d="M25.784 41.783a6.404 6.404 0 0 1 9.055-9.056" style="fill:#65e529"/><path class="st205" d="M30.312 45.158a7.853 7.853 0 0 1-5.588-2.314c-3.082-3.081-3.082-8.095-.001-11.177a7.855 7.855 0 0 1 5.589-2.314c2.11 0 4.095.822 5.587 2.314 1.493 1.493 2.316 3.478 2.316 5.589s-.823 4.096-2.316 5.588a7.85 7.85 0 0 1-5.587 2.314zm0-12.805c-1.31 0-2.542.51-3.468 1.436a4.91 4.91 0 0 0 0 6.934 4.877 4.877 0 0 0 3.468 1.436 4.87 4.87 0 0 0 3.466-1.436 4.867 4.867 0 0 0 1.437-3.467c0-1.31-.51-2.541-1.437-3.467a4.862 4.862 0 0 0-3.466-1.436z"/></g></svg>